<?xml version="1.0" encoding="UTF-8"?>
<svg version="1.1" xmlns="http://www.w3.org/2000/svg" width="2000" height="1500">
<path d="M0 0 C660 0 1320 0 2000 0 C2000 495 2000 990 2000 1500 C1340 1500 680 1500 0 1500 C0 1005 0 510 0 0 Z " fill="#111111" transform="translate(0,0)"/>
<path d="M0 0 C5.31870144 3.76200834 7.15840481 7.81828053 8.7109375 14.04296875 C8.89081207 14.75109207 9.07068665 15.45921539 9.25601196 16.188797 C9.82853105 18.45637942 10.38302114 20.72794761 10.9375 23 C11.30096591 24.44364117 11.66554257 25.88700315 12.03125 27.33007812 C14.26554163 36.21492364 16.33302535 45.13569955 18.375 54.06640625 C21.48148096 67.63334179 24.81735218 81.14039166 28.20410156 94.63964844 C29.03186851 97.93918372 29.85531018 101.23978147 30.67757607 104.54069138 C31.48326577 107.77249713 32.29258052 111.00339179 33.1015625 114.234375 C33.39020172 115.39298035 33.67884094 116.55158569 33.97622681 117.74530029 C35.7448351 124.78000372 37.65976488 131.75997951 39.67306519 138.72854614 C41.31431829 144.41929351 42.81332504 150.14532058 44.3125 155.875 C44.62832031 157.05771484 44.94414062 158.24042969 45.26953125 159.45898438 C45.71619141 161.16731445 45.71619141 161.16731445 46.171875 162.91015625 C46.43967773 163.92601807 46.70748047 164.94187988 46.98339844 165.98852539 C47.53705181 168.68840254 47.67448644 171.06663014 47.5625 173.8125 C48.2225 173.8125 48.8825 173.8125 49.5625 173.8125 C49.67335938 172.884375 49.78421875 171.95625 49.8984375 171 C50.6366996 165.85531638 51.94084591 160.85317942 53.1875 155.8125 C55.56669322 146.06440659 57.81849215 136.29412509 60 126.5 C62.47368402 115.4117088 65.13780376 104.38290024 67.93725586 93.37182617 C70.12321405 84.71640735 72.12548846 76.02627685 74.0625 67.3125 C76.58537955 55.97408208 79.27108112 44.68997686 82.14404297 33.43505859 C83.40989181 28.47014211 84.65441077 23.51330486 85.71484375 18.5 C85.88346924 17.71608887 86.05209473 16.93217773 86.22583008 16.12451172 C86.64680474 14.1302806 87.04717133 12.13172747 87.4453125 10.1328125 C88.87478995 5.88436554 90.33966196 3.94403952 93.5625 0.8125 C101.76119472 -3.0372254 112.26676858 -2.13607991 120.6953125 0.66796875 C126.80561828 4.41340723 127.87493537 10.500169 129.4375 17 C129.69523193 18.02770508 129.95296387 19.05541016 130.21850586 20.11425781 C132.20133636 28.0987615 134.01209209 36.12167376 135.81982422 44.1472168 C138.66760244 56.59395621 141.88645128 68.94638742 145.0625 81.3125 C148.67909458 95.3948641 152.28312215 109.46295251 155.44604492 123.65527344 C157.89979819 134.55712148 160.74884572 145.35946489 163.58105469 156.16796875 C163.86576881 157.25975433 163.86576881 157.25975433 164.15623474 158.37359619 C164.67457745 160.36000459 165.19618865 162.34555927 165.71801758 164.33105469 C166.48284026 167.48409646 167.0780524 170.60584493 167.5625 173.8125 C172.01406718 155.47741637 176.4546683 137.1398891 180.84912109 118.79101562 C184.53615946 103.39681025 188.23800737 88.00623959 191.95458984 72.61914062 C193.60177845 65.79779918 195.2460934 58.97578547 196.88354492 52.15209961 C197.37397778 50.10849481 197.86501621 48.06503524 198.35668945 46.02172852 C199.64129315 40.6781728 200.9116388 35.3316648 202.1640625 29.98046875 C202.56226196 28.29099121 202.56226196 28.29099121 202.96850586 26.56738281 C203.47362065 24.42320918 203.97471588 22.27808288 204.47094727 20.13183594 C208.3303425 3.80747275 208.3303425 3.80747275 214.5625 -0.1875 C219.8828525 -2.84767625 227.99818732 -1.82281752 233.60546875 -0.43359375 C238.00315407 1.22284607 241.31020445 2.49381265 243.5625 6.8125 C243.96111105 13.20004973 242.87066644 18.67899925 241.27783203 24.84350586 C241.03329127 25.82125347 240.78875051 26.79900108 240.53679943 27.80637741 C239.72348901 31.04899949 238.89688731 34.28807984 238.0703125 37.52734375 C237.49052371 39.82862434 236.91161886 42.1301278 236.33354187 44.43183899 C235.10193241 49.32860454 233.8646368 54.22388275 232.62271118 59.11804199 C230.68023462 66.77331608 228.75023947 74.4316984 226.82299805 82.09082031 C226.17804474 84.65347805 225.53307099 87.21613064 224.88807678 89.77877808 C224.56947252 91.0446664 224.25086826 92.31055473 223.92260933 93.61480331 C222.95644537 97.45154533 221.98902195 101.2879677 221.02122498 105.1242981 C215.73434125 126.08627458 210.52888653 147.06747614 205.375 168.0625 C204.86081729 170.15636555 204.34657341 172.25021606 203.83227921 174.34405422 C203.50191581 175.68911286 203.17162089 177.03418831 202.84139633 178.37928104 C201.74040201 182.86261535 200.63362165 187.3444992 199.52587891 191.82617188 C198.27362045 196.89814374 197.0408454 201.97421649 195.82331944 207.05463028 C195.02646142 210.37075899 194.21987633 213.68448096 193.4117794 216.99788666 C193.02449085 218.59565009 192.6414045 220.19443882 192.26282692 221.79428864 C191.73527339 224.02160554 191.19287264 226.2448326 190.6472168 228.46777344 C190.34083786 229.74247498 190.03445892 231.01717651 189.71879578 232.33050537 C188.27625336 236.6744847 186.3896405 240.40552472 182.7109375 243.23828125 C174.81821164 247.18464418 167.86990938 248.03359907 159 246.31640625 C154.45380722 244.79239844 152.22671389 242.69005103 149.5625 238.8125 C148.50770569 235.90266418 148.50770569 235.90266418 147.71899414 232.65551758 C147.41510269 231.43266556 147.11121124 230.20981354 146.79811096 228.9499054 C146.48111266 227.61899022 146.16429939 226.28803097 145.84765625 224.95703125 C145.50784109 223.57210459 145.16678916 222.18748087 144.8245697 220.80314636 C143.92582225 217.15492307 143.04222409 213.50320379 142.16229248 209.85040283 C140.76552886 204.06517071 139.3443368 198.2858469 137.92723656 192.50556946 C137.40911069 190.39026265 136.89270351 188.27454058 136.376297 186.15881348 C134.72349505 179.40435456 133.03084152 172.67169509 131.109375 165.98828125 C127.08752221 151.97521627 123.80421074 137.74928006 120.33862305 123.59075928 C119.34819561 119.54699318 118.35461409 115.50400221 117.36132812 111.4609375 C115.42536464 103.57886395 113.49280088 95.69596221 111.5625 87.8125 C108.5925 87.4825 105.6225 87.1525 102.5625 86.8125 C102.46512543 87.85066864 102.36775085 88.88883728 102.26742554 89.95846558 C101.47467991 96.24698381 99.82439075 102.33818661 98.28369141 108.47705078 C97.94320732 109.84769392 97.60311482 111.21843438 97.26338196 112.58926392 C96.34419285 116.29268016 95.4190404 119.99458145 94.49238253 123.69613504 C93.71782266 126.79222802 92.9460728 129.88901869 92.17426908 132.98579967 C90.3532763 140.29191716 88.52729708 147.59677593 86.69824219 154.90087891 C84.81374391 162.42677947 82.93790797 169.9548017 81.06626952 177.48390973 C79.45602922 183.96012366 77.84031606 190.43495541 76.22024858 196.90871799 C75.25399679 200.77010426 74.28983285 204.63198113 73.33098221 208.49521255 C72.42947963 212.12640569 71.52114081 215.75582128 70.60758018 219.38399887 C70.11560931 221.34491145 69.63058924 223.30756383 69.14579773 225.27026367 C68.8486235 226.44493195 68.55144928 227.61960022 68.24526978 228.8298645 C67.99123194 229.84635134 67.7371941 230.86283817 67.47545815 231.91012764 C65.69147711 237.58155658 63.68423282 241.62564403 58.5625 244.8125 C50.65661169 247.63603154 40.74556741 248.68328902 32.9375 245.125 C28.99104382 243.03113788 27.2092887 239.82921768 25.85892105 235.61870766 C25.10686221 232.8381075 24.41094486 230.04837763 23.73095703 227.24926758 C23.46545044 226.18505081 23.19994385 225.12083405 22.9263916 224.02436829 C22.05001315 220.50378111 21.18524595 216.98044602 20.3203125 213.45703125 C19.70960207 210.99603475 19.09808859 208.5352374 18.48580933 206.07463074 C17.03744218 200.24696904 15.59607433 194.41762252 14.15843952 188.58730763 C11.4436613 177.57881332 8.71253782 166.57436992 5.98116684 155.56998253 C5.09164213 151.98059992 4.2060171 148.39027381 3.32107544 144.79975891 C0.80252795 134.60706333 -1.76455963 124.44271419 -4.62319374 114.33978653 C-7.18449688 105.24817587 -9.42848165 96.07677768 -11.703125 86.91015625 C-12.18658466 84.97002688 -12.67029319 83.02995951 -13.15423584 81.08995056 C-14.41182471 76.04645426 -15.66676813 71.00230407 -16.92089844 65.95794678 C-18.94097919 57.83403763 -20.96443474 49.7109699 -22.98931122 41.58825493 C-23.69340512 38.76167661 -24.39589061 35.93470206 -25.09820557 33.10768127 C-25.52668013 31.3869598 -25.95520515 29.66625088 -26.38378906 27.94555664 C-26.57805481 27.16175629 -26.77232056 26.37795593 -26.97247314 25.57040405 C-27.71036225 22.61260872 -28.47304312 19.70587064 -29.4375 16.8125 C-29.93241132 11.78090158 -30.07821992 9.81126928 -27.3125 5.5 C-19.90151724 -1.4276578 -9.5915583 -3.31344741 0 0 Z " fill="#FDFDFD" transform="translate(294.4375,626.1875)"/>
<path d="M0 0 C0.97529663 -0.00700928 1.95059326 -0.01401855 2.95544434 -0.02124023 C6.15581374 -0.03873719 9.35528679 -0.02722295 12.55566406 -0.01367188 C14.79852466 -0.01637003 17.04138411 -0.02025514 19.28424072 -0.02526855 C23.9780189 -0.03115315 28.67149181 -0.02263712 33.36523438 -0.00390625 C39.35121998 0.01882945 45.33648595 0.00578719 51.32244492 -0.01819611 C55.95360626 -0.03272714 60.58460021 -0.0280138 65.21576691 -0.01768494 C67.42114601 -0.01503506 69.6265408 -0.01822548 71.83190155 -0.02760315 C83.45958518 -0.06618731 93.95509086 -0.10036095 104.82128906 4.51757812 C105.50111343 4.80305008 106.18093781 5.08852203 106.88136292 5.38264465 C119.58210399 11.1935506 128.265911 19.14655161 133.37475586 32.22412109 C135.58549803 38.99334286 135.29412396 45.99254639 135.29003906 53.03320312 C135.29715765 54.53619666 135.30485907 56.03918754 135.31311035 57.54217529 C135.32649868 60.68232789 135.32815039 63.82222934 135.32226562 66.96240234 C135.31638528 70.95099858 135.3469169 74.93837095 135.38738251 78.92673111 C135.41346576 82.02923874 135.4161183 85.13146007 135.41249084 88.23406219 C135.41416399 89.70262467 135.42362871 91.17120304 135.44163513 92.63965607 C135.5965673 106.83847754 132.30809855 118.72454355 122.30566406 129.08789062 C117.14778715 133.87019398 110.93742588 137.12307198 104.82128906 140.51757812 C106.23229376 144.34124008 108.00977519 147.67370256 110.13769531 151.14648438 C110.81098877 152.24992188 111.48428223 153.35335937 112.17797852 154.49023438 C112.91322471 155.6868637 113.64849555 156.88347788 114.38378906 158.08007812 C115.14615992 159.32722466 115.90811588 160.57462491 116.66967773 161.82226562 C118.255687 164.41978795 119.84348375 167.01620431 121.43261719 169.61181641 C125.18147915 175.73786165 128.90759707 181.87772735 132.63378906 188.01757812 C132.98645844 188.59857269 133.33912781 189.17956726 133.70248413 189.77816772 C136.07702262 193.69033343 138.44973896 197.60359987 140.82128906 201.51757812 C141.43504395 202.53045898 142.04879883 203.54333984 142.68115234 204.58691406 C144.35575832 207.35373476 146.02681576 210.12265814 147.69628906 212.89257812 C148.41909058 214.08657227 148.41909058 214.08657227 149.15649414 215.3046875 C155.84083505 226.42300287 155.84083505 226.42300287 155.75878906 231.01757812 C154.06689861 237.33396914 151.37255866 240.39427181 145.88378906 243.76757812 C140.61929671 246.79445781 136.01691884 249.27622667 129.82128906 248.51757812 C120.4200925 244.01283811 115.81257647 232.24345327 110.79156494 223.59188843 C108.90663193 220.34475125 107.01198079 217.10328943 105.11816406 213.86132812 C104.55640976 212.89902534 104.55640976 212.89902534 103.98330688 211.9172821 C101.00763267 206.82431229 97.99221828 201.75637126 94.94628906 196.70507812 C88.34458909 185.75353919 81.81709273 174.75772552 75.30760193 163.75115967 C74.53669854 162.45520666 73.7593325 161.16307397 72.97523499 159.87506104 C71.27540647 157.07028063 69.7534736 154.36576597 68.41235352 151.36352539 C67.10593396 148.5559544 66.10486216 146.6139924 63.82128906 144.51757812 C59.1046324 143.2954795 54.59931287 143.4802248 49.75878906 143.70507812 C36.92557932 144.10346275 36.92557932 144.10346275 33.88354492 142.48950195 C29.58414632 138.30351116 28.71568392 133.26753103 28.50878906 127.51757812 C28.61874841 122.29450902 29.96854775 118.75630721 33.32128906 114.70507812 C36.12360403 112.48657877 38.84827016 112.38804731 42.2734375 112.35986328 C43.17157166 112.34960114 44.06970581 112.33933899 44.99505615 112.32876587 C45.96380676 112.32146454 46.93255737 112.31416321 47.93066406 112.30664062 C49.98535944 112.27856582 52.04004684 112.24990131 54.09472656 112.22070312 C57.3313774 112.1794969 60.56788009 112.14260592 63.8046875 112.11621094 C66.93032601 112.08851662 70.05528819 112.04263859 73.18066406 111.99414062 C74.14131775 111.99088776 75.10197144 111.98763489 76.09173584 111.98428345 C82.78878879 111.86246364 88.12992662 111.20894057 93.07128906 106.26757812 C97.5662906 99.20400428 98.28838333 93.72273325 98.29003906 85.46679688 C98.29765259 84.41281204 98.30526611 83.35882721 98.31311035 82.27290344 C98.32388192 80.04987955 98.32677648 77.82680518 98.32226562 75.60375977 C98.32129503 72.22585374 98.36291755 68.85023388 98.40722656 65.47265625 C98.41243565 63.30404115 98.41512172 61.13541823 98.41503906 58.96679688 C98.43143433 57.96855392 98.44782959 56.97031097 98.46472168 55.94181824 C98.39602282 48.87167205 96.81354782 43.41371003 92.82128906 37.51757812 C88.12666338 33.06468552 83.22345189 32.38981731 76.96313477 32.31225586 C76.27019318 32.30235626 75.57725159 32.29245667 74.86331177 32.28225708 C72.57459928 32.25068852 70.28586605 32.22590309 67.99707031 32.20117188 C66.409515 32.18059833 64.82196512 32.15960175 63.23442078 32.13819885 C59.05712279 32.08301951 54.8797757 32.03359201 50.70239258 31.98535156 C46.43924594 31.93510632 42.17617056 31.87943604 37.91308594 31.82421875 C29.5492139 31.71668778 21.18528223 31.61523159 12.82128906 31.51757812 C12.82497623 32.57371622 12.82866341 33.62985432 12.83246231 34.7179966 C12.92122875 60.40659715 12.98697698 86.09517783 13.02853775 111.78389931 C13.04917002 124.20673699 13.07730348 136.62947341 13.12304688 149.05224609 C13.1628941 159.87891754 13.18871703 170.70551565 13.19764304 181.53225839 C13.20286133 187.26587715 13.21514031 192.99928611 13.24420929 198.73283768 C13.2713448 204.12871489 13.27973774 209.52429572 13.27371979 214.92023468 C13.27482085 216.9011763 13.2827857 218.88212776 13.29811096 220.86301041 C13.31800962 223.56753623 13.3132287 226.27094272 13.30230713 228.97549438 C13.31395849 229.75955269 13.32560986 230.54361099 13.3376143 231.35142863 C13.28079949 236.55570485 12.1058536 239.50461777 8.82128906 243.51757812 C2.96691918 247.85328968 -4.13375113 248.54626695 -11.17871094 247.51757812 C-16.61288617 245.81826246 -20.06999486 243.35023377 -23.17871094 238.51757812 C-23.76344825 235.45999781 -23.71872048 232.45108229 -23.68664551 229.34561157 C-23.69600545 227.95616225 -23.69600545 227.95616225 -23.70555449 226.53864324 C-23.72151547 223.43321846 -23.70886777 220.32857521 -23.69628906 217.22314453 C-23.70170886 214.99733522 -23.70883071 212.7715295 -23.7175293 210.54573059 C-23.73578445 204.49813962 -23.72868535 198.45082123 -23.71601295 192.40322542 C-23.70589421 186.07637573 -23.71527574 179.74954957 -23.72155762 173.42269897 C-23.72930491 162.11407424 -23.71686222 150.805588 -23.69652027 139.49699096 C-23.67865801 129.24988557 -23.68174619 119.00296148 -23.70019531 108.75585938 C-23.72161795 96.85165378 -23.72956 84.9475583 -23.71774626 73.04332674 C-23.71151057 66.74361911 -23.7106777 60.4440363 -23.72389221 54.1443367 C-23.73545122 48.21976234 -23.72742355 42.29553009 -23.70431519 36.37099266 C-23.69902795 34.19698212 -23.70054208 32.02294277 -23.70936584 29.84894371 C-23.72030428 26.88007835 -23.70657749 23.91230767 -23.68664551 20.94351196 C-23.69556839 20.08406719 -23.70449128 19.22462241 -23.71368456 18.33913386 C-23.63901684 12.60118398 -22.57678073 9.19193879 -19.17871094 4.51757812 C-13.57199113 0.20258944 -6.80969493 -0.06119637 0 0 Z " fill="#FDFDFD" transform="translate(1404.1787109375,625.482421875)"/>
<path d="M0 0 C1.77060647 -0.00457086 3.54121117 -0.0098791 5.31181335 -0.0158844 C9.01092769 -0.02478254 12.70982577 -0.02243114 16.40893555 -0.01245117 C21.115863 -0.00098076 25.82203804 -0.0211602 30.52886677 -0.05036831 C34.18294405 -0.06884449 37.83684492 -0.06841503 41.49095726 -0.06273079 C43.22465251 -0.06257889 44.95836075 -0.06851311 46.69201088 -0.08102226 C63.98403554 -0.18821651 81.07357254 3.33954867 94.20703125 15.65625 C104.30403134 27.19930287 106.28130686 39.2375186 106.15283203 54.08789062 C106.13659154 56.32612619 106.15284116 58.56259659 106.171875 60.80078125 C106.16989494 62.23828519 106.16605618 63.67578805 106.16015625 65.11328125 C106.15677246 66.39960449 106.15338867 67.68592773 106.14990234 69.01123047 C105.63419273 73.55790804 104.18355005 76.18949137 100.76171875 79.18359375 C96.62181342 81.77103458 92.60288151 81.61684495 87.88671875 81.62109375 C87.17902344 81.63333984 86.47132813 81.64558594 85.7421875 81.65820312 C80.32420418 81.67333716 76.64266749 81.05329961 72.51171875 77.49609375 C69.65894214 74.13389275 69.64228481 71.26694776 69.62109375 67.0234375 C69.60175781 65.95029297 69.58242188 64.87714844 69.5625 63.77148438 C69.5290568 61.53207656 69.51044894 59.29239034 69.5078125 57.05273438 C69.33916574 49.60121045 68.18722466 43.58202351 63.76171875 37.43359375 C59.11393727 33.30596772 54.57382542 32.18546893 48.44604492 32.14306641 C47.19091599 32.1303067 45.93578705 32.117547 44.6426239 32.10440063 C43.27998001 32.10134245 41.91733404 32.09911497 40.5546875 32.09765625 C39.14610155 32.0912226 37.73751692 32.08449382 36.32893372 32.07748413 C33.37933253 32.06552854 30.4298483 32.06180145 27.48022461 32.06298828 C23.71763758 32.0631912 19.95580818 32.03591073 16.19340038 32.00144386 C13.28413004 31.97910257 10.37503983 31.97515295 7.46569252 31.97620773 C6.07952582 31.9738618 4.69335339 31.9650955 3.30727196 31.949543 C-4.60107335 31.86912492 -10.55610742 31.97276808 -17.23828125 36.43359375 C-20.65631672 40.72804858 -22.34989378 44.23461298 -22.39941406 49.70214844 C-22.40902161 50.56024109 -22.41862915 51.41833374 -22.42852783 52.3024292 C-22.43490265 53.68993378 -22.43490265 53.68993378 -22.44140625 55.10546875 C-22.44995636 56.53913788 -22.44995636 56.53913788 -22.4586792 58.00177002 C-22.46812757 60.02590834 -22.47466253 62.05006204 -22.47851562 64.07421875 C-22.48820033 67.15782859 -22.51921679 70.24076592 -22.55078125 73.32421875 C-22.55731368 75.2929648 -22.56256321 77.26171561 -22.56640625 79.23046875 C-22.57875305 80.14737488 -22.59109985 81.06428101 -22.6038208 82.00897217 C-22.57970957 89.00430453 -21.49268196 93.7639087 -16.86328125 99.24609375 C-12.15834138 103.16687697 -8.2333393 103.68526733 -2.18823242 103.72070312 C-1.49809555 103.72753616 -0.80795868 103.7343692 -0.09690857 103.7414093 C1.39534588 103.75495245 2.88764614 103.76403447 4.37995338 103.76911926 C6.74766071 103.77744542 9.11498913 103.79798598 11.48258972 103.82165527 C16.51307606 103.86978414 21.5436006 103.90275756 26.57421875 103.93359375 C32.39636254 103.96936366 38.2183212 104.01146869 44.04028893 104.0695343 C46.36223779 104.08946595 48.68404157 104.09789537 51.00605774 104.10583496 C67.32454659 104.22363766 82.1826486 108.97281855 94.609375 120.0859375 C104.41519255 130.74443483 106.07258068 143.25167034 106.0625 157.13671875 C106.06678513 158.45089783 106.07107025 159.7650769 106.07548523 161.11907959 C106.08291325 163.89274141 106.08268216 166.66627588 106.07739258 169.43994141 C106.07161665 172.96092558 106.08849957 176.48138049 106.11173725 180.00227737 C106.13018624 183.40127776 106.12628561 186.80016886 106.125 190.19921875 C106.13420975 191.44648743 106.14341949 192.6937561 106.15290833 193.9788208 C106.08058591 207.84858836 103.15841692 219.5466309 93.76171875 230.05859375 C79.73866706 243.12412429 62.58048469 246.06497902 44.1953125 245.96484375 C42.42659798 245.96754621 40.65788492 245.97143486 38.88917542 245.97644043 C35.20372201 245.98229854 31.51865949 245.97389179 27.83325195 245.95507812 C23.14085289 245.93227379 18.44936857 245.94544442 13.75700283 245.96936798 C10.11152922 245.98391214 6.46626788 245.97918108 2.82078743 245.96885681 C1.0918574 245.96621413 -0.63709275 245.9693713 -2.36599922 245.97877502 C-21.159742 246.05861061 -36.11429556 240.97738449 -50.109375 227.8359375 C-53.42262659 224.09713066 -55.40571434 220.0455538 -57.23828125 215.43359375 C-57.58890625 214.634375 -57.93953125 213.83515625 -58.30078125 213.01171875 C-60.24130576 207.67527634 -60.41666323 202.24794997 -60.4765625 196.62109375 C-60.48463425 195.88914795 -60.49270599 195.15720215 -60.50102234 194.40307617 C-60.51478057 192.86346755 -60.52553921 191.32382948 -60.53344727 189.78417969 C-60.54500393 188.21703082 -60.56551375 186.64992243 -60.5949707 185.08300781 C-60.63773631 182.80376799 -60.6538219 180.52568533 -60.6640625 178.24609375 C-60.68157059 177.55217529 -60.69907867 176.85825684 -60.71711731 176.14331055 C-60.69484242 171.11140967 -59.3614277 168.32162926 -56.23828125 164.43359375 C-51.93430686 160.8047526 -47.67894613 160.94780002 -42.30078125 160.99609375 C-41.51509766 160.97611328 -40.72941406 160.95613281 -39.91992188 160.93554688 C-34.56065215 160.94003162 -31.40678463 161.78691175 -27.23828125 165.43359375 C-21.75129774 171.02100458 -22.75117278 177.8415397 -22.80078125 185.18359375 C-22.81915039 187.02050781 -22.81915039 187.02050781 -22.83789062 188.89453125 C-22.7697464 196.38237922 -22.44775004 203.60096308 -17.23828125 209.43359375 C-10.11465629 214.29830138 -3.13235854 214.02199529 5.26171875 213.96484375 C6.66601835 213.96754385 8.07031612 213.97143057 9.47460938 213.97644043 C12.40643249 213.98231128 15.33776549 213.97385171 18.26953125 213.95507812 C22.00857566 213.932289 25.74647127 213.94542526 29.48547363 213.96936798 C32.38192238 213.98389215 35.27810329 213.97919002 38.17456055 213.96885681 C39.55232889 213.96620772 40.93012237 213.96939461 42.30786133 213.97877502 C50.1838385 214.02064417 56.0972911 213.84576603 62.76171875 209.43359375 C68.45216889 202.5451541 69.08404264 195.72039684 69.1328125 187.13671875 C69.14184097 186.1479071 69.15086945 185.15909546 69.16017151 184.14031982 C69.17464269 182.05256156 69.18355294 179.96475826 69.18725586 177.87695312 C69.19912904 174.70754182 69.24832712 171.54009345 69.29882812 168.37109375 C69.30829639 166.33464484 69.31552949 164.29818406 69.3203125 162.26171875 C69.34961098 160.85808075 69.34961098 160.85808075 69.37950134 159.42608643 C69.33722255 153.15957726 67.9350236 148.88582725 64.83583069 143.43572998 C63.76171875 141.43359375 63.76171875 141.43359375 63.76171875 139.43359375 C62.97796875 139.12421875 62.19421875 138.81484375 61.38671875 138.49609375 C58.76171875 137.43359375 58.76171875 137.43359375 56.76171875 136.43359375 C54.49221462 136.33300148 52.21972186 136.29796731 49.94799805 136.29174805 C49.24682358 136.28827362 48.54564911 136.28479919 47.82322693 136.28121948 C46.29652896 136.27385736 44.76982026 136.26851441 43.24310875 136.26492882 C40.81553435 136.25775218 38.3881608 136.2420713 35.96064758 136.22358704 C29.05672164 136.17121308 22.15289906 136.12326965 15.2487793 136.10766602 C11.02519301 136.0974953 6.80210314 136.06793254 2.57871437 136.02634621 C0.97904049 136.01414682 -0.62070393 136.00889441 -2.22042274 136.01114464 C-19.65891919 136.02961648 -35.69458476 131.72863335 -48.80078125 119.55859375 C-52.6564711 115.3726521 -55.04414572 110.64679174 -57.23828125 105.43359375 C-57.76808594 104.23283203 -57.76808594 104.23283203 -58.30859375 103.0078125 C-59.98129486 98.37625774 -60.36360597 93.75829583 -60.39941406 88.86230469 C-60.40902161 87.79389343 -60.41862915 86.72548218 -60.42852783 85.62469482 C-60.43277771 84.48397522 -60.43702759 83.34325562 -60.44140625 82.16796875 C-60.44710632 80.9793927 -60.4528064 79.79081665 -60.4586792 78.56622314 C-60.46810927 76.05473719 -60.47465524 73.54323897 -60.47851562 71.03173828 C-60.4882116 67.2110408 -60.51925107 63.39088368 -60.55078125 59.5703125 C-60.55731303 57.12370109 -60.56256281 54.67708586 -60.56640625 52.23046875 C-60.57875305 51.09784607 -60.59109985 49.96522339 -60.6038208 48.79827881 C-60.5674823 35.70885901 -56.59665779 25.09878677 -47.80078125 15.30859375 C-44.18087628 11.88323262 -40.2169964 9.48256019 -35.86328125 7.12109375 C-35.26330322 6.79544434 -34.6633252 6.46979492 -34.04516602 6.13427734 C-22.91292471 0.42337964 -12.2752717 -0.02789647 0 0 Z " fill="#FDFDFD" transform="translate(803.23828125,625.56640625)"/>
<path d="M0 0 C1.02134033 -0.00926514 2.04268066 -0.01853027 3.0949707 -0.02807617 C10.59038551 0.00292425 17.71028067 0.16196776 24.0625 4.4375 C30.9461255 11.47757154 33.55299088 18.42708069 36.5 27.71484375 C36.92823284 29.03448455 37.35753474 30.35377885 37.7878418 31.67274475 C38.91471364 35.1368079 40.0266894 38.60547618 41.13562012 42.07531738 C42.25037674 45.55388074 43.37986882 49.02764849 44.5078125 52.50195312 C47.87372663 62.88509489 51.21630909 73.27524353 54.44140625 83.703125 C57.36251927 93.1153876 60.52102418 102.44878137 63.65390015 111.79223633 C70.08550604 130.98122449 76.45143141 150.19028291 82.68188477 169.44555664 C83.24230994 171.17725914 83.80277546 172.90894859 84.36328125 174.640625 C84.63979019 175.49514755 84.91629913 176.3496701 85.20118713 177.23008728 C87.03793068 182.89457226 88.9026386 188.54926306 90.78321838 194.19934082 C92.10536633 198.17335693 93.42002957 202.14983219 94.73428345 206.12646484 C95.3630435 208.02190415 95.99543259 209.91614401 96.63168335 211.80908203 C97.51126633 214.42699389 98.37800215 217.04884724 99.2421875 219.671875 C99.50392258 220.43965271 99.76565765 221.20743042 100.0353241 221.99847412 C101.89052856 227.69239212 102.78045617 232.65180185 100.625 238.4375 C97.0414065 243.99824854 92.1416978 246.76392146 85.8125 248.25 C80.5690343 248.86819269 76.28113411 248.86415608 71.375 246.8125 C65.81419319 241.25169319 63.8258211 232.72225035 61.4140625 225.3828125 C61.10309128 224.44843353 60.79212006 223.51405457 60.47172546 222.55136108 C59.45571763 219.49407785 58.4464518 216.43461838 57.4375 213.375 C56.71794921 211.20369081 55.99813706 209.03246821 55.27807617 206.86132812 C50.29105484 191.80590212 45.36264383 176.73143638 40.46875 161.64550781 C36.85035196 150.49374903 33.20932019 139.3495831 29.55078125 128.2109375 C29.3202965 127.50912102 29.08981174 126.80730453 28.85234261 126.08422089 C26.76600078 119.73161923 24.67916964 113.3791787 22.5897522 107.02758789 C17.83650277 92.57802901 13.100658 78.12387289 8.49295044 63.62704468 C5.36698971 53.80102967 2.10088325 44.02266396 -1.1875 34.25 C-3.25591087 37.3526163 -4.20445827 39.96328685 -5.36376953 43.49829102 C-5.57277799 44.13146177 -5.78178644 44.76463253 -5.99712849 45.41699028 C-6.69262666 47.52786556 -7.3815069 49.64083851 -8.0703125 51.75390625 C-8.56149884 53.24987762 -9.0530479 54.74572994 -9.54493713 56.24147034 C-10.86572541 60.26207351 -12.18053055 64.2846099 -13.49404526 68.3075943 C-14.58671238 71.65173534 -15.68287382 74.99472679 -16.77893353 78.33775711 C-23.87272042 99.97791267 -30.87269963 121.64656186 -37.77490234 143.34863281 C-42.39869718 157.87299713 -47.1628872 172.34689825 -52.0300293 186.79150391 C-54.51567885 194.17514128 -56.92360844 201.56824224 -59.19091797 209.02270508 C-61.07086619 215.11066086 -63.08777044 221.15068653 -65.125 227.1875 C-65.33374756 227.8256665 -65.54249512 228.46383301 -65.75756836 229.12133789 C-70.1848446 242.64294173 -70.1848446 242.64294173 -75.1875 247.25 C-82.50193278 249.68814426 -89.66664081 248.4200755 -96.69140625 245.5703125 C-100.65278896 243.47493323 -103.11669727 241.22524683 -105.1875 237.25 C-106.26440564 230.66660098 -104.42269711 224.67185564 -102.31347656 218.49853516 C-102.00778748 217.56879379 -101.70209839 216.63905243 -101.387146 215.68113708 C-100.38020831 212.62938857 -99.35441118 209.58435301 -98.328125 206.5390625 C-97.61913424 204.40388694 -96.91128711 202.26833133 -96.20452881 200.13241577 C-94.34384887 194.52013794 -92.46687892 188.91343844 -90.58666992 183.30767822 C-89.06107895 178.75059505 -87.54663318 174.18984794 -86.03287125 169.62882423 C-73.83232878 132.86814288 -73.83232878 132.86814288 -69.9498291 122.37875366 C-68.82973363 119.25096105 -67.92966284 116.07474093 -67.0390625 112.875 C-63.50468641 100.53510169 -59.31293389 88.40066455 -55.22866821 76.23476028 C-53.43176034 70.88111039 -51.63906315 65.52604704 -49.84557343 60.1712513 C-49.40244695 58.8485267 -48.95915429 57.52585777 -48.51569366 56.20324516 C-45.83235159 48.20007136 -43.1752007 40.18924314 -40.5703125 32.16015625 C-40.06478183 30.60997192 -39.55909405 29.0598388 -39.05322266 27.50976562 C-38.37869857 25.44269277 -37.70737202 23.37494787 -37.04803467 21.30297852 C-36.46835356 19.48156888 -35.87520546 17.66446118 -35.28125 15.84765625 C-34.96865234 14.87320557 -34.65605469 13.89875488 -34.33398438 12.89477539 C-32.14753174 7.85094205 -29.08807939 4.67402319 -24.1875 2.25 C-16.45045758 -0.24023568 -8.03586891 0.04583544 0 0 Z " fill="#FDFDFD" transform="translate(1252.1875,624.75)"/>
<path d="M0 0 C0.97990906 -0.00571014 1.95981812 -0.01142029 2.96942139 -0.01730347 C4.0432457 -0.01842133 5.11707001 -0.01953918 6.22343445 -0.02069092 C7.92138657 -0.02813828 7.92138657 -0.02813828 9.65364075 -0.03573608 C13.4069733 -0.05036859 17.16026358 -0.05716152 20.91362 -0.06268311 C23.51812746 -0.06843361 26.1226349 -0.07419136 28.72714233 -0.07995605 C33.49340123 -0.0895266 38.25965098 -0.0954239 43.0259183 -0.09845281 C50.03508594 -0.10293182 57.04405839 -0.12047354 64.05316669 -0.1494534 C70.12882128 -0.17369948 76.20439546 -0.18139834 82.28009605 -0.18312836 C84.86248525 -0.18615708 87.44487358 -0.19419296 90.02723122 -0.20731354 C93.6396579 -0.22435761 97.25160893 -0.22249747 100.86405945 -0.21600342 C101.93181107 -0.2252182 102.99956268 -0.23443298 104.09967041 -0.243927 C109.55514167 -0.2131871 113.55879815 -0.00498492 118.23783875 3.14044189 C121.53856615 7.1027075 121.64338825 10.52199847 121.61283875 15.57794189 C121.62057312 16.85540283 121.6283075 18.13286377 121.63627625 19.44903564 C121.20618085 23.43374294 120.47578957 25.8226065 118.23783875 29.14044189 C113.69658409 31.70771572 109.10456012 31.409731 104.04130554 31.36749268 C103.10895741 31.36773375 102.17660929 31.36797482 101.21600819 31.36822319 C98.20625996 31.36673369 95.19676126 31.35151749 92.1870575 31.33575439 C90.32560851 31.33281284 88.46415788 31.33077309 86.60270691 31.32965088 C79.71022558 31.31917663 72.8177797 31.29125414 65.92533875 31.26544189 C42.81502625 31.20356689 42.81502625 31.20356689 19.23783875 31.14044189 C19.23783875 91.53044189 19.23783875 151.92044189 19.23783875 214.14044189 C51.92284942 214.02169478 51.92284942 214.02169478 84.60771179 213.87017822 C90.93278503 213.85662842 90.93278503 213.85662842 93.89489746 213.85411072 C95.96136411 213.8495074 98.02782276 213.83896323 100.09423828 213.82371521 C103.22647579 213.80176017 106.35822137 213.79872373 109.49052429 213.79986572 C110.40936999 213.7890714 111.32821569 213.77827707 112.2749052 213.76715565 C117.06821197 213.79055476 120.38903916 213.94800038 124.23783875 217.14044189 C127.90368974 223.08164868 128.08233549 229.29166607 127.23783875 236.14044189 C126.07318645 239.59259074 124.57392836 242.28765948 121.41576004 244.3034153 C118.85524537 245.28748157 116.88317706 245.39757523 114.14109802 245.40786743 C113.1122197 245.4163974 112.08334137 245.42492737 111.02328491 245.43371582 C109.90009354 245.43280945 108.77690216 245.43190308 107.61967468 245.43096924 C105.83854027 245.44104507 105.83854027 245.44104507 104.02142334 245.45132446 C100.76705473 245.46706855 97.5128393 245.47367968 94.25843716 245.47495604 C92.22276406 245.47637901 90.18711759 245.48065146 88.15145111 245.48595047 C81.04237169 245.50445153 73.93336722 245.51262135 66.82426453 245.51104736 C60.20997816 245.50984723 53.59601878 245.53092384 46.9818151 245.56253469 C41.29416749 245.58874313 35.60662633 245.59941269 29.91891885 245.59813654 C26.52600118 245.59762807 23.1333739 245.60324651 19.74051666 245.62449265 C15.95126355 245.64411817 12.16284793 245.63832652 8.37358093 245.62628174 C7.25848648 245.63752075 6.14339203 245.64875977 4.99450684 245.66033936 C-1.28886987 245.60966328 -6.6562023 245.1035981 -11.76216125 241.14044189 C-13.50401736 238.86864474 -14.54462366 236.77032311 -15.76216125 234.14044189 C-16.09216125 233.48044189 -16.42216125 232.82044189 -16.76216125 232.14044189 C-16.86463143 229.31154013 -16.90553236 226.50700071 -16.90260315 223.67764282 C-16.90705983 222.34822472 -16.90705983 222.34822472 -16.91160655 220.99194968 C-16.92031998 218.00416554 -16.92180404 215.01642135 -16.92329407 212.02862549 C-16.92792047 209.89355381 -16.93294489 207.75848296 -16.93833923 205.62341309 C-16.9514847 199.80913052 -16.95791268 193.99485951 -16.96234989 188.1805644 C-16.96527792 184.54921404 -16.96938227 180.91786686 -16.97385406 177.2865181 C-16.98753633 165.92862251 -16.9971987 154.57073416 -17.00105596 143.2128309 C-17.00553486 130.09558789 -17.023072 116.97844918 -17.05205655 103.86123788 C-17.07367139 93.72782088 -17.08376018 83.59443322 -17.08509707 73.46099341 C-17.08614549 67.40657588 -17.09206085 61.35225629 -17.10991669 55.29786301 C-17.12639325 49.59993367 -17.12855478 43.90217593 -17.11977768 38.20423126 C-17.11900702 36.11448584 -17.12335387 34.02473121 -17.13323593 31.935009 C-17.14595139 29.07818293 -17.14008056 26.22196492 -17.12965393 23.36514282 C-17.13771034 22.54158306 -17.14576674 21.71802331 -17.15406728 20.86950719 C-17.1046187 15.06103583 -16.41795022 9.07511711 -12.34562802 4.57515752 C-8.33280329 1.09768587 -5.19247601 0.01812385 0 0 Z " fill="#FEFEFE" transform="translate(582.7621612548828,625.8595581054688)"/>
<path d="M0 0 C0.97990906 -0.00571014 1.95981812 -0.01142029 2.96942139 -0.01730347 C4.0432457 -0.01842133 5.11707001 -0.01953918 6.22343445 -0.02069092 C7.92138657 -0.02813828 7.92138657 -0.02813828 9.65364075 -0.03573608 C13.4069733 -0.05036859 17.16026358 -0.05716152 20.91362 -0.06268311 C23.51812746 -0.06843361 26.1226349 -0.07419136 28.72714233 -0.07995605 C33.49340123 -0.0895266 38.25965098 -0.0954239 43.0259183 -0.09845281 C50.03508594 -0.10293182 57.04405839 -0.12047354 64.05316669 -0.1494534 C70.12882128 -0.17369948 76.20439546 -0.18139834 82.28009605 -0.18312836 C84.86248525 -0.18615708 87.44487358 -0.19419296 90.02723122 -0.20731354 C93.6396579 -0.22435761 97.25160893 -0.22249747 100.86405945 -0.21600342 C101.93181107 -0.2252182 102.99956268 -0.23443298 104.09967041 -0.243927 C109.55035058 -0.21321409 113.5691604 -0.01458178 118.23783875 3.14044189 C122.4772951 8.51041994 121.86610856 15.62112268 121.23783875 22.14044189 C120.09994029 25.55891834 119.0774975 27.86871489 116.23783875 30.14044189 C112.24829348 31.47029032 108.42695386 31.27116956 104.26835632 31.25396729 C103.33624927 31.25408782 102.40414221 31.25420835 101.44378948 31.25433254 C98.42329214 31.2535855 95.40285632 31.24596672 92.38237 31.23809814 C90.5188856 31.23662808 88.65540079 31.23560777 86.79191589 31.23504639 C79.87805055 31.22980098 72.96419405 31.21583981 66.05033875 31.20294189 C50.60221375 31.18231689 35.15408875 31.16169189 19.23783875 31.14044189 C19.23783875 91.53044189 19.23783875 151.92044189 19.23783875 214.14044189 C52.25208072 213.94252676 52.25208072 213.94252676 85.26591492 213.69000244 C91.65446472 213.66741943 91.65446472 213.66741943 94.64624023 213.66322327 C96.73357471 213.6555506 98.82088716 213.63797575 100.90808105 213.61256409 C104.07202079 213.57597219 107.23460784 213.57091131 110.39872742 213.57281494 C111.32694148 213.5548244 112.25515554 213.53683386 113.21149731 213.51829815 C117.70885949 213.55452948 119.62348088 213.6678705 123.2902832 216.48841858 C126.46261241 220.80823942 126.42595719 224.26582308 126.48783875 229.51544189 C126.51362 230.82255127 126.53940125 232.12966064 126.56596375 233.47637939 C126.21712298 237.37176793 125.68415396 239.13041056 123.23783875 242.14044189 C119.71328122 244.6301379 117.30765422 245.51595609 113.00738525 245.52139282 C111.97424194 245.52985229 110.94109863 245.53831177 109.87664795 245.54702759 C108.75390976 245.5409549 107.63117157 245.5348822 106.47441101 245.52862549 C105.28362946 245.53388245 104.0928479 245.5391394 102.86598206 245.54455566 C99.60759068 245.55548489 96.34956585 245.55293986 93.09118009 245.54341841 C89.6760236 245.53580823 86.26089112 245.54287135 82.84573364 245.5475769 C77.1100985 245.55303126 71.37457932 245.54585209 65.63896179 245.53155518 C59.01613611 245.51523696 52.39358764 245.52051226 45.7707687 245.53703439 C40.07717891 245.55066775 34.38367237 245.55255968 28.69007152 245.54471838 C25.29283193 245.54005099 21.89572243 245.53939099 18.49849129 245.54932785 C14.70902403 245.55694701 10.92008867 245.54533014 7.13066101 245.52862549 C6.00994705 245.53469818 4.88923309 245.54077087 3.73455811 245.54702759 C-1.82729587 245.50161057 -6.00535795 245.3709057 -10.76216125 242.14044189 C-16.09940874 236.35842378 -17.05809255 232.07959544 -17.02958679 224.31651306 C-17.0341179 223.41556925 -17.03864902 222.51462544 -17.04331744 221.5863803 C-17.05599939 218.56097336 -17.05433861 215.53574556 -17.0526886 212.51031494 C-17.0586715 210.34376798 -17.06547649 208.17722316 -17.07304382 206.01068115 C-17.09073586 200.12012864 -17.09540057 194.2296342 -17.0966754 188.33905768 C-17.09857308 183.42353125 -17.10592916 178.50801839 -17.11301959 173.59249717 C-17.12931354 161.99559742 -17.13418764 150.39872873 -17.13276672 138.80181885 C-17.13156521 126.83551877 -17.15266675 114.86942807 -17.18425405 102.90316933 C-17.21039903 92.63299195 -17.22113475 82.36287352 -17.2198559 72.09266311 C-17.21934572 65.95724103 -17.22505995 59.82197915 -17.24621201 53.68659019 C-17.26556414 47.91553968 -17.26573936 42.14480267 -17.25117874 36.37374115 C-17.24908576 34.25616054 -17.25382056 32.13856046 -17.26589966 30.02101326 C-17.28132868 27.12874688 -17.27205916 24.23756458 -17.25663757 21.34532166 C-17.2669247 20.50854045 -17.27721183 19.67175925 -17.28781068 18.80962104 C-17.22082978 13.11984379 -16.01416964 9.83404093 -12.76216125 5.14044189 C-8.62767089 1.30847521 -5.58057075 0.01947845 0 0 Z " fill="#FEFEFE" transform="translate(1605.7621612548828,625.8595581054688)"/>
<path d="M0 0 C0.78568359 -0.01998047 1.57136719 -0.03996094 2.38085938 -0.06054688 C7.75357941 -0.05605087 10.79032491 0.91230031 15.0625 4.4375 C19.35792581 9.32539834 19.20924649 14.01176266 19.20294189 20.25506592 C19.20591302 21.16740596 19.20888414 22.079746 19.2119453 23.01973271 C19.2206459 26.08966173 19.2221417 29.15955181 19.22363281 32.22949219 C19.22826004 34.42544641 19.23328457 36.62139982 19.23867798 38.81735229 C19.25181355 44.7926604 19.25824924 50.76795726 19.26268864 56.74327755 C19.26561761 60.47496378 19.2697221 64.20664692 19.27419281 67.9383316 C19.28787105 79.60964195 19.29755193 91.28094584 19.3013947 102.95226359 C19.30183817 104.29564969 19.30228473 105.63903578 19.30273438 106.98242188 C19.3029558 107.64878691 19.30317723 108.31515194 19.30340537 109.00170985 C19.30735223 119.79592056 19.32480268 130.59006372 19.3480939 141.38424835 C19.37181812 152.46866931 19.38401237 163.55306218 19.38543582 174.63750958 C19.38648468 180.86011222 19.39240985 187.0826196 19.41025543 193.30519867 C19.42671661 199.15908418 19.42890103 205.01280264 19.42011642 210.86670303 C19.419345 213.01492128 19.42370265 215.16314844 19.43357468 217.31134415 C19.44626563 220.24509539 19.44043265 223.17825245 19.42999268 226.11199951 C19.43804908 226.96113568 19.44610548 227.81027185 19.45440602 228.68513942 C19.41010449 234.01198982 18.57892057 237.71429575 16.0625 242.4375 C10.95537362 247.28927006 6.54990897 247.66334016 -0.25 247.75 C-0.99701172 247.77900391 -1.74402344 247.80800781 -2.51367188 247.83789062 C-7.79026058 247.89811508 -10.81349614 247.0132611 -14.9375 243.4375 C-18.55497194 238.88572469 -18.36347785 234.74187838 -18.32518005 229.18287659 C-18.33056559 228.24770437 -18.33595113 227.31253215 -18.34149987 226.34902138 C-18.35581344 223.21374844 -18.34866724 220.07889568 -18.34155273 216.94360352 C-18.34725451 214.69646871 -18.35421802 212.4493368 -18.36235046 210.20220947 C-18.38031806 204.09688386 -18.3791067 197.99170168 -18.37340808 191.88635755 C-18.37032149 186.79173873 -18.37640277 181.69714768 -18.38244683 176.6025328 C-18.39730613 163.89784232 -18.39366858 151.19325347 -18.38158352 138.48856919 C-18.37165107 127.45774853 -18.38459182 116.42709559 -18.40851771 105.3963008 C-18.43290659 94.06658708 -18.44211733 82.7369736 -18.43586498 71.40722603 C-18.43249058 65.04773816 -18.43494271 58.6883889 -18.45211601 52.32892036 C-18.46755811 46.34937229 -18.46365972 40.37014502 -18.44481087 34.39060974 C-18.44111746 32.19521077 -18.44425522 29.99978818 -18.45469666 27.80441093 C-18.46785645 24.80893758 -18.45640301 21.81453407 -18.43870544 18.81910706 C-18.44831045 17.94896754 -18.45791546 17.07882803 -18.46781152 16.18232065 C-18.40215651 10.78664473 -17.50973962 7.72819642 -13.9375 3.4375 C-9.63352561 -0.19134115 -5.37816488 -0.04829373 0 0 Z " fill="#FBFBFB" transform="translate(1105.9375,624.5625)"/>
<path d="M0 0 C1.18529297 -0.03673828 1.18529297 -0.03673828 2.39453125 -0.07421875 C8.67451889 -0.10556644 12.15649493 1.53593794 16.76476479 5.9432621 C18.86251724 9.69348419 18.53827872 13.28114526 18.50595093 17.5093689 C18.51297089 18.91084559 18.51297089 18.91084559 18.52013266 20.34063494 C18.53212187 23.47902368 18.52260992 26.61697892 18.51318359 29.75537109 C18.5172476 32.00235754 18.52258851 34.24934199 18.52911377 36.49632263 C18.54281503 42.60584756 18.53747666 48.71522086 18.52797651 54.82474852 C18.52039262 61.21346165 18.52742216 67.60216161 18.53213501 73.99087524 C18.53794716 85.4106846 18.52860944 96.83040986 18.513357 108.250205 C18.49996001 118.60108239 18.50227618 128.95185882 18.51611328 139.30273438 C18.53217502 151.32337801 18.53813957 163.34394537 18.52927649 175.36460364 C18.52459734 181.72743188 18.52398168 188.09019059 18.53388596 194.45301437 C18.54254877 200.43661231 18.53654599 206.42001955 18.51920319 212.40359688 C18.51523436 214.60060497 18.51637913 216.79762909 18.52299118 218.99463081 C18.5311811 221.99219223 18.52091546 224.98914147 18.50595093 227.98666382 C18.51598918 229.29289627 18.51598918 229.29289627 18.52623022 230.62551725 C18.4778061 235.62176272 17.87506325 239.03568954 15.125 243.375 C9.75977904 248.23723149 3.68778782 247.70170116 -3.1875 247.59765625 C-8.43207971 247.28098142 -11.6194357 246.17945144 -15.75 242.875 C-18.73077241 238.90063679 -18.02623935 234.03817555 -18.02890015 229.32292175 C-18.0332824 228.38537483 -18.03766465 227.44782791 -18.0421797 226.48187047 C-18.05558053 223.32669745 -18.06174942 220.17155237 -18.06787109 217.01635742 C-18.07577093 214.7596677 -18.08403981 212.50297924 -18.09265137 210.24629211 C-18.11888111 202.82436329 -18.13417812 195.40242878 -18.1484375 187.98046875 C-18.15379644 185.42769174 -18.15917394 182.87491477 -18.16456985 180.32213783 C-18.18619831 169.70631362 -18.2050878 159.09049076 -18.21619225 148.47465038 C-18.21912192 145.72032352 -18.22208359 142.96599669 -18.22509766 140.21166992 C-18.22584371 139.52709889 -18.22658976 138.84252786 -18.22735842 138.13721225 C-18.24001511 127.04481861 -18.27324342 115.95258515 -18.31489949 104.86026641 C-18.35731696 93.47187005 -18.38047925 82.08358545 -18.38611281 70.69509965 C-18.38977146 64.30086634 -18.40184805 57.9069047 -18.43421555 51.51274681 C-18.46422262 45.49873777 -18.47063407 39.48516582 -18.45883179 33.47109795 C-18.45861045 31.26278304 -18.46696491 29.05444827 -18.48448563 26.84620285 C-18.50709389 23.83294857 -18.49892047 20.82129051 -18.48300171 17.80802917 C-18.50382484 16.49493712 -18.50382484 16.49493712 -18.52506864 15.15531796 C-18.46979619 10.91378142 -18.17828482 8.21903716 -15.44686317 4.86990833 C-10.48701921 0.05847196 -6.68317713 0.01079673 0 0 Z " fill="#FEFEFE" transform="translate(975.875,624.625)"/>
<path d="M0 0 C7.04856932 3.2359341 11.08212485 7.7278935 14.953125 14.30859375 C17.28483261 22.21049177 17.08313063 29.85183199 13.26953125 37.2265625 C9.39620828 43.38578099 2.93784684 47.8345198 -3.921875 50.12109375 C-13.68160642 51.00308429 -19.28790276 49.32922838 -27.171875 43.87109375 C-32.48485317 38.55811558 -35.04334022 32.03786969 -35.296875 24.55859375 C-35.21763837 17.27762803 -33.16552443 11.68910813 -28.2421875 6.2734375 C-20.09097311 -1.09888307 -10.65322864 -3.20451396 0 0 Z " fill="#FCFCFC" transform="translate(664.921875,718.87890625)"/>
<path d="M0 0 C2.71872037 1.75548401 4.76625821 3.7466123 6.86328125 6.203125 C7.58515625 7.0075 8.30703125 7.811875 9.05078125 8.640625 C13.27837192 14.61756353 13.78276498 21.0795458 12.86328125 28.203125 C10.32096057 36.33855118 5.30237973 42.08233079 -2.04296875 46.296875 C-8.32002045 49.07524215 -15.33168996 49.43496885 -21.8515625 47.32421875 C-29.88732592 43.66281076 -34.71517909 38.30728608 -38.13671875 30.203125 C-38.98983716 23.14760515 -39.43889992 15.23717606 -35.60546875 8.98046875 C-26.30800574 -2.27045059 -13.7456347 -7.13667323 0 0 Z " fill="#FCFCFC" transform="translate(1691.13671875,720.796875)"/>
<path d="M0 0 C6.3828543 3.65922592 11.41908437 8.90002968 13.625 16 C14.46936993 23.85708439 14.709637 31.36831532 10.171875 38.13671875 C4.89973232 44.48725425 -0.72773053 48.23685548 -8.9765625 49.3515625 C-16.12600034 49.73420847 -21.5235849 48.12982528 -27.375 44 C-32.85968956 39.05362257 -35.95920137 34.35238568 -36.67578125 26.8515625 C-36.70752519 18.11139887 -36.25630518 11.81761109 -30.1875 5.25 C-21.52965438 -2.61585974 -11.04452011 -4.96666682 0 0 Z " fill="#FCFCFC" transform="translate(1052.375,720)"/>
<path d="M0 0 C4.77163987 3.23501008 8.98303092 7.99261422 11.07421875 13.40625 C12.00847392 21.21465639 11.73896153 28.36728056 7.77734375 35.27734375 C4.37650639 39.52839045 -0.12292713 42.00482294 -4.92578125 44.40625 C-7.17233712 44.55602039 -9.42441893 44.62775174 -11.67578125 44.65625 C-12.8875 44.68203125 -14.09921875 44.7078125 -15.34765625 44.734375 C-21.1543571 44.20188278 -25.83467353 41.49735772 -29.92578125 37.40625 C-35.24182552 29.97255073 -36.24071714 22.36491892 -34.92578125 13.40625 C-32.52899718 6.75438231 -26.86313828 1.28485826 -20.53515625 -1.734375 C-13.66045338 -3.9984987 -6.41906851 -3.2268208 0 0 Z " fill="#FDFDFD" transform="translate(1261.92578125,775.59375)"/>
</svg>
